# xmcd
#
# Track frame offsets: 
#        150
#        12096
#        23357
#        36708
#        49862
#        65195
#        87375
#        102395
#        114275
#        127297
#        141942
#        155810
#
# Disc length: 2307 seconds
#
# Revision: 0
# Processed by: cddbd v1.5.2PL0 Copyright (c) Steve Scherf et al.
# Submitted via: ExactAudioCopyFreeDBPlugin 1.0
#
DISCID=ad09010c
DTITLE=Wilson Pickett - Right On
DYEAR=1970
DGENRE=Soul
TTITLE0=Groovy Little Woman
TTITLE1=Funky Way
TTITLE2=Sugar Sugar
TTITLE3=Sweet Inspiration
TTITLE4=This Old Town
TTITLE5=You Keep Me Hangin' On
TTITLE6=Lord Pity Us All
TTITLE7=It's Still Good
TTITLE8=Woman Likes To Hear That
TTITLE9=She Said Yes
TTITLE10=Hey Joe
TTITLE11=Steal Away
EXTD=
EXTT0=
EXTT1=
EXTT2=
EXTT3=
EXTT4=
EXTT5=
EXTT6=
EXTT7=
EXTT8=
EXTT9=
EXTT10=
EXTT11=
PLAYORDER=
